<svg width="3036" height="891" viewBox="0 0 3036 891" fill="none" xmlns="http://www.w3.org/2000/svg">
<path d="M1828.11 836.489H1815.82V652.087H1828.11V836.489ZM1913.91 812.425C1909.2 821.057 1902.93 827.596 1895.08 832.042C1887.23 836.489 1878.34 838.843 1868.66 838.843C1861.6 838.843 1855.32 837.535 1849.83 834.658C1844.07 831.781 1839.36 827.857 1835.18 822.626C1831.25 817.395 1828.11 811.379 1825.76 804.578C1823.67 797.516 1822.36 790.192 1822.36 782.084C1822.36 773.975 1823.41 766.652 1825.76 759.589C1827.85 752.527 1830.99 746.511 1835.18 741.542C1839.1 736.31 1844.07 732.387 1849.83 729.51C1855.58 726.633 1861.86 725.325 1868.66 725.325C1878.34 725.325 1887.23 727.679 1895.08 732.125C1902.93 736.572 1909.2 743.111 1913.91 751.743C1918.62 760.374 1920.97 770.313 1920.97 782.084C1920.97 793.854 1918.88 804.055 1913.91 812.425ZM1903.19 757.758C1899.52 750.958 1894.29 745.727 1888.02 742.326C1881.74 738.926 1874.67 737.095 1867.09 737.095C1862.12 737.095 1857.15 738.141 1852.44 740.495C1847.73 742.588 1843.55 745.988 1840.15 749.912C1836.48 754.097 1833.61 758.805 1831.51 764.298C1829.42 769.79 1828.38 775.806 1828.38 782.345C1828.38 788.884 1829.42 794.9 1831.51 800.393C1833.61 805.886 1836.48 810.594 1840.15 814.779C1843.81 818.964 1847.99 822.103 1852.44 824.195C1857.15 826.288 1861.86 827.596 1867.09 827.596C1874.67 827.596 1881.74 825.765 1888.02 822.103C1894.29 818.441 1899.26 813.21 1903.19 806.671C1906.85 799.87 1908.94 792.023 1908.94 782.345C1908.94 772.668 1906.85 764.559 1903.19 757.758Z" fill="#14314D"/>
<path d="M1957.59 888.54H1943.99L1971.98 825.242L1928.04 727.679H1942.69L1982.18 820.272L1976.43 819.749L2014.88 727.417H2028.48L1957.59 888.54Z" fill="#14314D"/>
<path d="M2143.57 772.928L2142.27 775.806L2117.42 836.488H2102.77L2175.75 664.38L2248.73 836.488H2234.08L2209.49 776.59L2208.44 773.451L2175.75 694.46L2143.57 772.928ZM2137.82 768.743H2214.2L2218.38 781.037H2133.37L2137.82 768.743Z" fill="#14314D"/>
<path d="M2281.95 652.087V836.489H2269.66V652.087H2281.95Z" fill="#14314D"/>
<path d="M2317 752.005C2321.7 743.374 2327.98 736.835 2336.09 732.388C2343.94 727.942 2352.83 725.588 2362.51 725.588C2369.57 725.588 2375.85 726.895 2381.34 729.773C2386.84 732.65 2391.81 736.573 2395.99 741.804C2399.92 747.036 2403.05 753.052 2405.41 759.852C2407.5 766.914 2408.81 774.238 2408.81 782.347C2408.81 790.455 2407.76 797.779 2405.41 804.841C2403.32 811.903 2400.18 817.919 2395.99 822.889C2392.07 828.12 2387.1 832.044 2381.34 834.921C2375.59 837.798 2369.31 839.106 2362.51 839.106C2352.83 839.106 2344.2 836.752 2336.09 832.305C2328.24 827.858 2321.7 821.319 2317 812.688C2312.29 804.056 2309.93 794.117 2309.93 782.347C2309.93 770.576 2312.29 760.375 2317 752.005ZM2324.84 843.552C2324.84 850.353 2326.41 856.369 2329.55 861.862C2332.69 867.355 2337.14 871.539 2342.89 874.678C2348.65 877.817 2355.45 879.386 2362.77 879.386C2369.57 879.386 2375.85 877.817 2381.87 874.417C2387.88 871.016 2392.85 866.308 2396.78 859.508C2400.7 852.968 2402.53 844.337 2402.53 833.875V727.419H2414.83V833.875C2414.83 846.43 2412.47 856.892 2407.5 865.262C2402.53 873.632 2396.25 880.171 2388.41 884.356C2380.56 888.541 2371.93 890.634 2362.77 890.634C2352.83 890.634 2343.94 888.541 2336.35 884.618C2328.77 880.694 2322.75 875.201 2318.57 867.878C2314.38 860.554 2312.29 852.445 2312.29 843.291H2324.84V843.552ZM2327.98 806.41C2331.64 813.211 2336.88 818.181 2343.15 821.843C2349.43 825.505 2356.49 827.335 2364.08 827.335C2369.05 827.335 2374.02 826.289 2378.73 823.935C2383.44 821.581 2387.62 818.442 2391.02 814.519C2394.42 810.595 2397.56 805.626 2399.65 800.133C2401.75 794.64 2402.79 788.362 2402.79 781.823C2402.79 775.546 2401.75 769.792 2399.65 764.299C2397.56 759.068 2394.68 754.098 2391.02 750.174C2387.36 746.251 2383.17 742.851 2378.73 740.497C2374.02 738.143 2369.31 737.096 2364.08 737.096C2356.49 737.096 2349.69 738.927 2343.15 742.328C2336.61 745.728 2331.91 750.959 2327.98 757.76C2324.06 764.56 2322.23 772.669 2322.23 782.085C2322.23 791.501 2324.32 799.61 2327.98 806.41Z" fill="#14314D"/>
<path d="M2449.09 752.79C2454.06 744.158 2460.6 737.619 2468.97 732.65C2477.34 727.68 2487.02 725.326 2497.48 725.326C2507.95 725.326 2517.62 727.68 2525.99 732.65C2534.37 737.619 2541.17 744.158 2545.87 752.79C2550.84 761.421 2553.2 771.099 2553.2 782.085C2553.2 793.071 2550.84 802.748 2545.87 811.38C2540.9 820.012 2534.37 826.812 2525.99 831.52C2517.62 836.49 2507.95 838.844 2497.48 838.844C2487.02 838.844 2477.34 836.49 2468.97 831.52C2460.6 826.551 2453.8 820.012 2449.09 811.38C2444.12 802.748 2441.77 793.071 2441.77 782.085C2441.77 771.099 2444.38 761.421 2449.09 752.79ZM2460.08 805.364C2463.74 812.165 2468.97 817.658 2475.51 821.581C2482.05 825.504 2489.37 827.335 2497.74 827.335C2505.85 827.335 2513.18 825.504 2519.98 821.581C2526.52 817.658 2531.75 812.426 2535.41 805.364C2539.34 798.563 2541.17 790.716 2541.17 782.085C2541.17 773.192 2539.34 765.345 2535.41 758.544C2531.75 751.744 2526.52 746.512 2519.98 742.589C2513.44 738.665 2506.12 736.835 2497.74 736.835C2489.64 736.835 2482.05 738.665 2475.51 742.589C2468.97 746.512 2463.74 751.744 2460.08 758.544C2456.42 765.345 2454.32 773.192 2454.32 782.085C2454.32 790.716 2456.15 798.563 2460.08 805.364Z" fill="#14314D"/>
<path d="M2602.12 670.919L2578.84 725.324H2570.21L2587.47 670.919H2602.12Z" fill="#14314D"/>
<path d="M2621.21 670.919H2721.39V683.213H2677.97V836.488H2664.89V683.213H2621.47V670.919H2621.21Z" fill="#14314D"/>
<path d="M2734.47 831.52C2726.89 826.55 2720.87 820.011 2716.68 811.38C2712.24 802.748 2710.14 793.07 2710.14 781.823C2710.14 773.453 2711.45 765.868 2713.81 759.067C2716.42 752.267 2719.82 746.251 2724.53 741.281C2729.24 736.311 2734.73 732.388 2741.01 729.511C2747.29 726.634 2754.35 725.326 2762.2 725.326C2772.14 725.326 2780.77 727.68 2788.36 732.126C2795.94 736.573 2801.7 743.112 2805.88 750.959C2810.07 759.067 2812.16 768.484 2812.16 779.208C2812.16 780.254 2812.16 781.3 2812.16 782.346C2812.16 783.393 2811.9 784.439 2811.9 784.962H2717.99V774.238H2802.74L2797.51 781.562C2797.77 780.777 2798.29 779.731 2798.56 778.161C2799.08 776.854 2799.08 775.546 2799.08 774.499C2799.08 767.176 2797.51 760.375 2794.37 754.621C2791.23 748.866 2786.79 744.158 2781.29 741.02C2775.8 737.619 2769.52 736.05 2762.46 736.05C2756.44 736.05 2750.95 737.096 2746.24 739.189C2741.53 741.281 2737.35 744.42 2733.69 748.343C2730.02 752.267 2727.41 756.975 2725.58 762.468C2723.75 767.96 2722.7 774.238 2722.7 781.039C2722.7 790.193 2724.27 798.302 2727.67 805.102C2730.81 812.164 2735.52 817.396 2741.27 821.319C2747.29 825.243 2754.09 827.074 2761.94 827.074C2770.31 827.074 2777.63 825.243 2783.91 821.581C2790.19 817.919 2795.68 812.165 2800.65 804.579L2810.59 810.857C2804.31 820.273 2797.25 827.335 2789.14 831.782C2781.03 836.228 2771.61 838.582 2760.63 838.582C2750.69 838.844 2742.06 836.49 2734.47 831.52Z" fill="#14314D"/>
<path d="M2847.47 805.364C2851.13 812.165 2856.37 817.658 2862.91 821.581C2869.44 825.504 2876.77 827.335 2885.14 827.335C2890.89 827.335 2896.39 826.551 2901.36 824.72C2906.33 822.889 2910.77 820.796 2914.44 817.919C2918.1 815.042 2920.71 812.426 2922.28 809.549V824.981C2918.88 828.905 2913.91 832.305 2907.11 834.921C2900.31 837.536 2892.99 838.844 2885.14 838.844C2874.68 838.844 2865 836.49 2856.63 831.52C2848.26 826.551 2841.46 820.012 2836.75 811.38C2831.78 802.748 2829.42 793.071 2829.42 782.085C2829.42 771.099 2831.78 761.16 2836.75 752.79C2841.72 744.42 2848.26 737.619 2856.63 732.65C2865 727.68 2874.68 725.326 2885.14 725.326C2892.99 725.326 2900.31 726.634 2907.11 729.511C2913.91 732.388 2919.14 735.527 2922.28 739.45V754.882C2920.71 752.005 2918.1 749.128 2914.44 746.251C2910.77 743.635 2906.33 741.281 2901.36 739.712C2896.39 737.881 2890.89 737.096 2885.14 737.096C2877.03 737.096 2869.44 738.927 2862.91 742.85C2856.37 746.774 2851.13 752.005 2847.47 758.806C2843.81 765.606 2841.72 773.453 2841.72 782.347C2841.98 790.717 2843.81 798.563 2847.47 805.364Z" fill="#14314D"/>
<path d="M2966.23 836.489H2953.93V652.087H2966.23V836.489ZM3021.16 750.696C3019.33 746.25 3016.71 742.85 3012.79 740.495C3008.87 738.141 3004.16 736.834 2998.14 736.834C2992.12 736.834 2986.63 738.403 2981.66 741.28C2976.95 744.157 2973.03 748.342 2970.41 753.312C2967.8 758.282 2966.23 764.036 2966.23 770.052H2962.04C2962.04 761.42 2963.61 753.574 2967.01 747.035C2970.41 740.234 2975.12 735.003 2980.88 731.079C2986.89 727.156 2993.43 725.063 3000.76 725.063C3008.34 725.063 3014.62 726.633 3019.85 729.771C3025.08 732.91 3029.01 737.357 3031.62 743.373C3034.24 749.389 3035.55 756.451 3035.55 765.082V836.489H3023.25V766.39C3023.78 760.374 3022.99 755.143 3021.16 750.696Z" fill="#14314D"/>
<path d="M2424.51 111.959C2458.51 111.959 2491.73 111.959 2524.43 111.959C2529.14 100.973 2539.34 94.4338 2555.29 94.4338C2569.94 94.4338 2579.36 100.188 2586.42 111.959C2622.52 111.959 2657.57 111.959 2691.57 111.959L2687.65 103.589C2683.2 91.5567 2678.5 80.8326 2673 70.8932C2597.41 70.8932 2516.58 70.8932 2432.09 70.8932C2427.65 83.1867 2425.29 97.0495 2424.51 111.959Z" fill="#394170"/>
<path d="M1766.91 111.697C1831.26 111.697 1895.08 111.697 1958.12 111.697V70.3698C1906.59 70.3698 1854.54 70.3698 1801.96 70.3698C1788.62 82.4016 1776.85 96.0028 1766.91 111.697Z" fill="#D6544C"/>
<path d="M3018.02 145.962C2987.42 145.962 2954.46 145.962 2919.41 145.962V187.288C2954.2 187.288 2987.16 187.288 3018.02 187.288V145.962Z" fill="#394170"/>
<path d="M1516.32 111.697C1522.86 111.697 1529.66 111.697 1536.2 111.697C1562.09 111.697 1587.99 111.697 1613.89 111.697V70.3698C1581.45 70.3698 1548.75 70.3698 1516.32 70.3698V111.697Z" fill="#394170"/>
<path d="M2919.41 111.958C2954.2 111.958 2987.16 111.958 3018.02 111.958V70.6315C2987.42 70.6315 2954.46 70.6315 2919.41 70.6315V111.958Z" fill="#394170"/>
<path d="M535.673 220.509C498.529 220.509 462.693 220.509 427.381 220.509L411.163 261.836C446.214 261.836 482.311 261.836 519.455 261.836L535.673 220.509Z" fill="#394170"/>
<path d="M470.541 111.697C505.854 111.697 541.951 111.697 578.833 111.697L595.313 70.3698C558.431 70.3698 522.333 70.3698 487.02 70.3698L470.541 111.697Z" fill="#394170"/>
<path d="M39.2077 111.697H146.977L131.282 70.3698C92.8306 70.3698 56.7332 70.3698 23.5132 70.3698L39.2077 111.697Z" fill="#394170"/>
<path d="M702.038 111.697C734.211 111.697 766.647 111.697 799.605 111.697V70.3698C766.647 70.3698 733.95 70.3698 702.038 70.3698V111.697Z" fill="#394170"/>
<path d="M188.042 220.768C149.852 220.768 113.755 220.768 80.2729 220.768L95.7059 262.095H203.475L188.042 220.768Z" fill="#394170"/>
<path d="M2707.01 145.962C2673 145.962 2638.48 145.962 2602.38 145.962L2621.21 187.288C2657.05 187.288 2691.84 187.288 2725.84 187.288L2707.01 145.962Z" fill="#394170"/>
<path d="M565.496 145.441C528.614 145.441 492.255 145.441 457.204 145.441L440.986 186.768C476.037 186.768 512.396 186.768 549.278 186.768L565.496 145.441Z" fill="#394170"/>
<path d="M159.528 145.441C121.077 145.441 85.2407 145.441 51.759 145.441L67.192 186.768H174.961L159.528 145.441Z" fill="#394170"/>
<path d="M2071.64 111.697C2139.91 111.697 2207.14 111.697 2272.53 111.697C2262.59 96.2644 2251.08 82.4016 2238 70.3698C2183.6 70.3698 2128.14 70.3698 2071.64 70.3698V111.697V111.697Z" fill="#D6544C"/>
<path d="M1220.22 240.124H1089.43C1057.52 240.124 1037.37 232.277 1024.82 220.768C987.937 220.768 951.055 220.768 914.957 220.768C918.619 235.154 923.851 249.017 931.698 262.095C1060.92 262.095 1195.1 262.095 1330.86 262.095C1303.4 248.232 1267.3 240.124 1220.22 240.124Z" fill="#394170"/>
<path d="M1050.72 111.697C1059.09 109.342 1068.5 107.773 1079.49 107.773H1365.92V70.3698C1220.22 70.3698 1076.35 70.3698 937.978 70.3698C929.085 82.6632 922.022 96.5259 917.575 111.697C961.258 111.697 1005.73 111.697 1050.72 111.697Z" fill="#394170"/>
<path d="M799.605 145.441C766.647 145.441 733.95 145.441 702.038 145.441V186.768C734.211 186.768 766.647 186.768 799.605 186.768V145.441Z" fill="#394170"/>
<path d="M2290.58 145.7C2250.3 145.7 2209.23 145.7 2167.64 145.7C2180.2 156.685 2190.4 170.025 2197.99 187.027C2234.08 187.027 2269.4 187.027 2304.71 187.027C2300.79 172.379 2296.08 158.516 2290.58 145.7Z" fill="#D6544C"/>
<path d="M1871.02 145.7C1830.73 145.7 1789.93 145.7 1749.12 145.7C1743.63 158.516 1738.66 172.379 1734.74 187.027C1770.31 187.027 1805.62 187.027 1840.94 187.027C1848.52 170.287 1858.46 156.685 1871.02 145.7Z" fill="#D6544C"/>
<path d="M1006.51 173.951C1006.51 163.489 1008.34 154.073 1011.48 145.441C977.474 145.441 943.731 145.441 910.51 145.441C909.726 153.549 908.679 161.919 908.679 170.551C908.679 175.782 908.941 181.275 909.203 186.768C941.638 186.768 974.335 186.768 1007.29 186.768C1006.77 182.583 1006.51 178.136 1006.51 173.951Z" fill="#394170"/>
<path d="M2521.29 145.962C2489.38 145.962 2456.68 145.962 2423.72 145.962V187.288C2456.94 187.288 2489.38 187.288 2521.29 187.288V145.962Z" fill="#394170"/>
<path d="M1614.15 186.768V145.441C1581.71 145.441 1549.02 145.441 1516.58 145.441V186.768C1524.43 186.768 1532.27 186.768 1540.38 186.768C1564.71 186.768 1589.56 186.768 1614.15 186.768Z" fill="#394170"/>
<path d="M2741.54 221.03C2707.8 221.03 2672.74 221.03 2636.91 221.03L2655.74 262.357C2691.58 262.357 2726.63 262.357 2760.37 262.357L2741.54 221.03Z" fill="#394170"/>
<path d="M397.56 295.839L332.689 459.577C326.934 472.917 318.564 478.672 305.485 478.672C292.145 478.672 283.251 472.917 278.281 459.577L216.55 295.839C178.621 295.839 142.524 295.839 108.781 295.839L188.3 506.659C208.964 561.325 251.339 578.588 305.747 578.588C363.817 578.588 401.745 558.71 422.409 506.659L506.113 295.839C468.708 295.839 432.611 295.839 397.56 295.839Z" fill="#394170"/>
<path d="M118.462 36.6298L108.522 9.95044H0.753174L10.9546 36.6298H118.462Z" fill="#394170"/>
<path d="M799.605 36.3682V9.95044H702.038V36.3682C733.95 36.3682 766.647 36.3682 799.605 36.3682Z" fill="#394170"/>
<path d="M608.656 36.3682L619.119 9.95044H510.565L500.102 36.3682C535.677 36.3682 571.774 36.3682 608.656 36.3682Z" fill="#394170"/>
<path d="M702.038 295.839V568.911H799.605V295.839C766.647 295.839 733.95 295.839 702.038 295.839Z" fill="#394170"/>
<path d="M2216.82 296.101C2216.82 297.147 2217.08 297.932 2217.08 298.978C2217.08 430.806 2169.47 485.211 2058.83 485.211H1980.62C1869.19 485.211 1821.58 430.806 1821.58 299.763C1821.58 298.455 1821.84 297.147 1821.84 295.839C1788.36 295.839 1755.14 295.839 1721.4 295.839C1721.4 297.147 1721.4 298.455 1721.4 299.763C1721.4 492.011 1813.21 585.389 1980.88 585.389H2059.09C2226.5 585.389 2318.57 491.75 2318.57 299.763C2318.57 298.455 2318.57 297.147 2318.57 295.839C2284.83 296.101 2251.09 296.101 2216.82 296.101Z" fill="#D6544C"/>
<path d="M2919.41 296.36V452.251C2919.41 471.345 2907.12 483.639 2886.19 483.639C2867.88 483.639 2857.16 473.699 2850.62 460.359L2775.54 296.36C2741.8 296.36 2707.01 296.36 2670.91 296.36L2752.79 475.269C2776.07 539.09 2811.64 578.847 2889.33 578.847C2975.39 578.847 3017.5 529.935 3017.5 456.436V296.621C2987.16 296.36 2954.46 296.36 2919.41 296.36Z" fill="#394170"/>
<path d="M2423.72 296.098V568.646H2521.29V296.098C2489.38 296.098 2456.94 296.098 2423.72 296.098Z" fill="#394170"/>
<path d="M961.521 295.839C989.771 317.81 1031.36 331.935 1092.57 331.935H1222.57C1291.37 331.935 1310.2 365.153 1310.2 401.51C1310.2 442.052 1286.14 471.086 1233.3 471.086H918.885V568.649H1230.16C1357.55 568.649 1408.03 499.073 1408.03 404.649C1408.03 365.938 1399.66 326.442 1374.03 295.578C1233.82 295.839 1095.19 295.839 961.521 295.839Z" fill="#394170"/>
<path d="M1516.32 295.839V568.649H1613.89V295.839C1581.45 295.839 1549.01 295.839 1516.32 295.839Z" fill="#394170"/>
<path d="M1365.91 36.63V10.2122H1082.63C1036.07 10.2122 999.968 19.89 973.026 36.63C1100.67 36.3684 1232.51 36.3684 1365.91 36.63Z" fill="#394170"/>
<path d="M2312.03 221.03C2278.29 221.03 2244.02 221.03 2209.23 221.03C2212.11 233.585 2214.2 247.448 2215.25 262.357C2249.51 262.357 2283.52 262.357 2316.74 262.357C2315.95 247.709 2314.12 234.108 2312.03 221.03Z" fill="#D6544C"/>
<path d="M799.605 261.836V220.509C766.647 220.509 733.95 220.509 702.038 220.509V261.836C733.95 261.836 766.647 261.836 799.605 261.836Z" fill="#394170"/>
<path d="M2521.29 221.03C2489.38 221.03 2456.68 221.03 2423.72 221.03V262.357C2456.94 262.357 2489.38 262.357 2521.29 262.357V221.03Z" fill="#394170"/>
<path d="M1829.43 220.768C1795.68 220.768 1761.68 220.768 1727.41 220.768C1725.32 233.846 1723.49 247.709 1722.44 262.095C1756.19 262.095 1789.67 262.095 1823.15 262.095C1824.72 247.186 1826.55 233.323 1829.43 220.768Z" fill="#D6544C"/>
<path d="M1532.54 36.63C1559.74 36.63 1586.94 36.63 1613.89 36.63V10.2122H1516.32V36.63C1521.81 36.63 1527.3 36.63 1532.54 36.63Z" fill="#394170"/>
<path d="M3018.02 221.03C2987.16 221.03 2954.46 221.03 2919.41 221.03V262.357C2954.2 262.357 2987.16 262.357 3018.02 262.357V221.03Z" fill="#394170"/>
<path d="M1614.15 261.836V220.509C1581.71 220.509 1549.02 220.509 1516.58 220.509V261.836C1525.74 261.836 1534.89 261.836 1544.05 261.836C1567.33 261.836 1590.87 261.836 1614.15 261.836Z" fill="#394170"/>
<path d="M1958.12 36.6288V12.3036C1918.62 14.3961 1883.83 22.5045 1853.75 36.3673C1888.54 36.6288 1923.33 36.6288 1958.12 36.6288Z" fill="#D6544C"/>
<path d="M2185.43 36.6285C2152.99 21.7195 2115.06 13.3496 2071.64 12.0417V36.6285C2110.09 36.6285 2148.02 36.6285 2185.43 36.6285Z" fill="#D6544C"/>
<path d="M3018.02 36.8914V9.95044H2919.41V36.8914C2954.46 36.8914 2987.42 36.8914 3018.02 36.8914Z" fill="#394170"/>
<path d="M2649.2 36.8911C2626.97 13.6121 2596.63 0.0108643 2551.9 0.0108643C2506.38 0.0108643 2473.68 13.612 2452.76 36.6295C2521.03 36.8911 2586.69 36.8911 2649.2 36.8911Z" fill="#394170"/>
</svg>
